<svg version="1" xmlns="http://www.w3.org/2000/svg" viewBox="0 0 765.7 236.5">
    <path d="M44.1 144.6c5-3.4 11.9-5.6 17.2-5.6 16.3 0 23.2 8.5 23.2 22.1v43.5H68.3v-42.9c0-4.7-2.7-6.9-7-6.9-5.5 0-8.9 1.7-11 2.5v47.2H34.1v-42.9c0-4.7-2.7-6.9-6.9-6.9-4.9 0-8.3 1.4-11 2.5v47.2H0V141h11.5l1 2.2c4.5-2.5 10.4-4.2 14.8-4.2 8.8 0 13.6 2.3 16.8 5.6" fill="#037d3f"></path>
    <path d="M135.4 161.5c0-4.5-2.3-6.6-8.2-6.6-6.2 0-14.8 1.7-21.5 4.1v-16.2c7.1-3.2 15.9-3.8 21.5-3.8 19.3 0 24.3 9.3 24.3 23.3v42.4h-11.3l-1-1.9c-4.4 2.3-10.2 3.9-14.6 3.9-17.4 0-23.1-10.9-23.1-22.8 0-11.1 6-20.5 23.1-21.6l10.8-.8zM124.9 177c-5.6.5-7.2 3.7-7.2 6.9 0 2.9.9 6.9 7.1 6.9 3.4 0 8.2-1.8 10.6-3v-11.6l-10.5.8z" fill="#4daf4f"></path>
    <path d="M170.2 141h11.3l.9 2.3c4.4-2.7 10.6-4.3 15.4-4.3 21.6 0 27.7 12.1 27.7 33.9 0 21.9-6.1 33.9-27.7 33.9-3.4 0-8.4-1-11.6-2.4v32.2h-16V141zm16 47.4c2.7 1.1 7 2.4 11.3 2.4 9.6 0 11.6-7.6 11.6-17.9 0-10.3-2-17.9-11.6-17.9-4.4 0-8.7 1.3-11.3 2.4v31z" fill="#94c03d"></path>
    <path d="M265.8 164.2c18.2 1.8 22.3 8.5 22.3 20.4 0 10.7-6.2 22.2-25.6 22.2-5.7 0-15-1.9-20.1-3.9v-16.6c5.7 2.2 13.5 4.6 20.2 4.6 7.4 0 9.6-3.2 9.6-6 0-2.5-1.5-4.5-8.2-5.1-17.9-1.8-22.3-9.3-22.3-19.2 0-9.9 6-21.5 24-21.5 5.6 0 12.4.9 19.6 4.2v16c-6.8-2.4-13.2-4.3-19.6-4.3-6.8 0-8.3 2.5-8.3 5.5.1 1.8 1.5 3 8.4 3.7" fill="#cedb37"></path>
    <path d="M310.7 200v36.4h-3.9v-95.2h1.7l1.8 5c5.7-3.7 15.3-5.6 22.6-5.6 21.5 0 26.8 14.1 26.8 32.4s-5.3 32.4-26.8 32.4c-7.2-.1-16.5-1.9-22.2-5.4m0-50.7v47.2c5.8 3.6 13.2 5.3 22.3 5.3 19.3 0 22.8-14.6 22.8-28.9 0-14.3-3.5-28.9-22.8-28.9-9.1 0-16.5 1.8-22.3 5.3m114.7 49.4v3.4c-5 1.9-13.6 3.2-20.6 3.2-21.5 0-26.8-13.5-26.8-32.4s5.3-32.4 26.8-32.4 23.8 13.7 23.8 32.4v1.8H382c.3 14.3 4.3 27.2 22.8 27.2 9.6 0 15.8-1.7 20.6-3.2m-.7-27.6c0-13.8-1.4-27.2-19.9-27.2s-22.5 12.8-22.8 27.2h42.7zm47.6-30.6c22.6 0 26.6 13.7 26.6 32.4s-4 32.4-26.6 32.4-26.6-13.7-26.6-32.4c0-18.6 4-32.4 26.6-32.4m0 61.4c20.3 0 22.6-13 22.6-28.9 0-16-2.3-28.9-22.6-28.9s-22.6 13-22.6 28.9c0 15.9 2.3 28.9 22.6 28.9m49-1.9v36.4h-3.9v-95.2h1.7l1.8 5c5.7-3.7 15.3-5.6 22.6-5.6 21.5 0 26.8 14.1 26.8 32.4s-5.3 32.4-26.8 32.4c-7.2-.1-16.5-1.9-22.2-5.4m0-50.7v47.2c5.8 3.6 13.2 5.3 22.3 5.3 19.3 0 22.8-14.6 22.8-28.9 0-14.3-3.5-28.9-22.8-28.9-9.1 0-16.5 1.8-22.3 5.3m78.2 56c-6.9 0-9.8-3-9.8-9.3v-86.6h3.9v86.3c0 4.8 1.3 6.5 6 6.5v3.1zm62.3-6.6v3.4c-5 1.9-13.6 3.2-20.6 3.2-21.5 0-26.8-13.5-26.8-32.4s5.3-32.4 26.8-32.4 23.8 13.7 23.8 32.4v1.8h-46.6c.3 14.3 4.3 27.2 22.8 27.2 9.6 0 15.8-1.7 20.6-3.2m-.7-27.6c0-13.8-1.4-27.2-19.9-27.2s-22.5 12.8-22.8 27.2h42.7z" fill="#727272"></path>
    <path d="M703.8 0C669.7 0 642 27.7 642 61.8c0 27.3 17.7 50.5 42.3 58.7l19.6 55.4 19.6-55.4c24.6-8.2 42.3-31.3 42.3-58.7C765.7 27.7 738 0 703.8 0m0 81.2c-10.3 0-18.6-8.3-18.6-18.6S693.6 44 703.8 44c10.3 0 18.6 8.3 18.6 18.6s-8.3 18.6-18.6 18.6" fill="#9cbd2d"></path>
</svg>