<svg width="28" height="44" viewBox="0 0 28 44" fill="none" xmlns="http://www.w3.org/2000/svg">
<g id="Frame 12">
<path id="Vector" d="M23.4475 0.237549H4.67844C2.45799 0.237549 0.656494 2.03905 0.656494 4.2595V39.1164C0.656494 41.3368 2.45799 43.1383 4.67844 43.1383H23.4475C25.668 43.1383 27.4695 41.3368 27.4695 39.1164V4.2595C27.4695 2.03905 25.668 0.237549 23.4475 0.237549ZM14.063 40.457C12.5799 40.457 11.3817 39.2588 11.3817 37.7757C11.3817 36.2926 12.5799 35.0944 14.063 35.0944C15.5461 35.0944 16.7443 36.2926 16.7443 37.7757C16.7443 39.2588 15.5461 40.457 14.063 40.457ZM23.4475 31.4076C23.4475 31.9606 22.9951 32.4131 22.442 32.4131H5.68393C5.13091 32.4131 4.67844 31.9606 4.67844 31.4076V5.26498C4.67844 4.71196 5.13091 4.2595 5.68393 4.2595H22.442C22.9951 4.2595 23.4475 4.71196 23.4475 5.26498V31.4076Z" fill="#168FFF"/>
</g>
</svg>
